<svg xmlns="http://www.w3.org/2000/svg" version="1.1" xmlns:xlink="http://www.w3.org/1999/xlink" xmlns:svgjs="http://svgjs.com/svgjs" width="512" height="512" x="0" y="0" viewBox="0 0 64 64" style="enable-background:new 0 0 512 512" xml:space="preserve" class=""><g><path fill="#fff" d="M56.76 24.41h-1.93a1.83 1.83 0 0 1-1.66-1.2 1.81 1.81 0 0 1 .34-2l1.37-1.37a4.74 4.74 0 0 0 0-6.7l-4-4a4.74 4.74 0 0 0-6.7 0l-1.37 1.37a1.92 1.92 0 0 1-3.18-1.32V7.24a4.74 4.74 0 0 0-4.78-4.74h-5.7a4.74 4.74 0 0 0-4.74 4.74v1.93a1.83 1.83 0 0 1-1.2 1.66 1.81 1.81 0 0 1-2-.34l-1.35-1.37a4.74 4.74 0 0 0-6.7 0l-4 4a4.74 4.74 0 0 0 0 6.7l1.37 1.37a1.92 1.92 0 0 1-1.32 3.18H7.24a4.74 4.74 0 0 0-4.74 4.78v5.7a4.74 4.74 0 0 0 4.74 4.74h1.93a1.8 1.8 0 0 1 1.64 1.16 1.81 1.81 0 0 1-.34 2l-1.35 1.39a4.74 4.74 0 0 0 0 6.7l4 4a4.74 4.74 0 0 0 6.7 0l1.37-1.37a1.92 1.92 0 0 1 3.18 1.32v1.93a4.74 4.74 0 0 0 4.74 4.74h5.7a4.74 4.74 0 0 0 4.74-4.74v-1.89a1.83 1.83 0 0 1 1.2-1.66 1.81 1.81 0 0 1 2 .34l1.37 1.37a4.74 4.74 0 0 0 6.7 0l4-4a4.74 4.74 0 0 0 0-6.7l-1.37-1.37a1.92 1.92 0 0 1 1.32-3.18h1.93a4.74 4.74 0 0 0 4.74-4.74v-5.7a4.74 4.74 0 0 0-4.68-4.78zM32 45.39A13.39 13.39 0 1 1 45.39 32 13.41 13.41 0 0 1 32 45.39z" data-name="Layer 59" data-original="#fff" class=""></path></g></svg>