<svg xmlns="http://www.w3.org/2000/svg" version="1.1" xmlns:xlink="http://www.w3.org/1999/xlink" xmlns:svgjs="http://svgjs.com/svgjs" width="512" height="512" x="0" y="0" viewBox="0 0 512 512" style="enable-background:new 0 0 512 512" xml:space="preserve" class=""><g><path d="M420.09 105H275a54.33 54.33 0 0 0-54.27 54.27v30.13H96.17a54.33 54.33 0 0 0-54.27 54.27v82.38a54.36 54.36 0 0 0 46.78 53.76l.09 52.87a7.49 7.49 0 0 0 11.51 6.32l92.61-58.68h48.39a54.32 54.32 0 0 0 54.27-54.27V296h27.82L416 354.64a7.5 7.5 0 0 0 11.51-6.32l.08-52.87a54.35 54.35 0 0 0 46.78-53.76v-82.38A54.32 54.32 0 0 0 420.09 105zM280.55 326a39.31 39.31 0 0 1-39.27 39.27h-50.56a7.53 7.53 0 0 0-4 1.17l-83 52.56-.07-46.24a7.5 7.5 0 0 0-7.5-7.49 39.31 39.31 0 0 1-39.25-39.22v-82.38a39.31 39.31 0 0 1 39.27-39.27h145.11a39.31 39.31 0 0 1 39.27 39.27zm178.81-84.36A39.31 39.31 0 0 1 420.09 281a7.51 7.51 0 0 0-7.5 7.49l-.07 46.24-83-52.56a7.5 7.5 0 0 0-4-1.17h-30v-37.33c.17-32.23-28.08-56.86-59.84-54.27v-30.09A39.32 39.32 0 0 1 275 120h145.09a39.31 39.31 0 0 1 39.27 39.27z" fill="#000000" data-original="#000000" class=""></path><path d="M175.41 235.05c-2.59-5.39-10.78-5.41-13.37 0l-46.28 91.12c-4.19 9 8.55 15.5 13.37 6.79l16-31.4h47.29l15.9 31.44c4.83 8.71 17.57 2.18 13.38-6.79zm-22.71 51.51 16-31.55 16 31.55zM391.38 235.74l-29.21-19.65a161.05 161.05 0 0 0 15.18-30.44h9.84c9.93-.34 9.93-14.66 0-15h-30.35v-15.57a7.5 7.5 0 1 0-15 0v15.57h-34a7.5 7.5 0 0 0 0 15h53.33a145.71 145.71 0 0 1-11.49 22.07L330.81 195a7.5 7.5 0 1 0-8.37 12.45L341 220a153 153 0 0 1-19.35 20.33 7.5 7.5 0 0 0 9.89 11.29 168.93 168.93 0 0 0 21.95-23.22L383 248.18a7.41 7.41 0 0 0 4.18 1.28c7.28.06 10.34-9.61 4.2-13.72z" fill="#000000" data-original="#000000" class=""></path></g></svg>